<svg version="1.1" xmlns="http://www.w3.org/2000/svg" viewBox="0 0 1692.142857142857 526.4285714285713" width="1692.142857142857" height="526.4285714285713" filter="invert(93%) hue-rotate(180deg)">
  <!-- svg-source:excalidraw -->
  
  <defs>
    <style class="style-fonts">
      @font-face {
        font-family: "Virgil";
        src: url("https://excalidraw.com/Virgil.woff2");
      }
      @font-face {
        font-family: "Cascadia";
        src: url("https://excalidraw.com/Cascadia.woff2");
      }
      @font-face {
        font-family: "Assistant";
        src: url("https://excalidraw.com/Assistant-Regular.woff2");
      }
    </style>
    
  </defs>
  <g stroke-linecap="round" transform="translate(9.999999999999943 17.85714285714289) rotate(0 249.28571428571425 249.28571428571422)"><path d="M266.87 1.38 C286.01 -1.58, 306.88 5.2, 325.8 11.26 C344.72 17.32, 363.59 27.18, 380.39 37.74 C397.19 48.31, 412.62 60.79, 426.61 74.66 C440.59 88.52, 454.21 103.96, 464.29 120.94 C474.36 137.92, 481.24 157.47, 487.05 176.54 C492.85 195.61, 497.77 215.58, 499.11 235.36 C500.46 255.14, 498.82 275.64, 495.11 295.22 C491.39 314.8, 485.19 334.74, 476.82 352.83 C468.46 370.93, 457.46 388.34, 444.91 403.8 C432.37 419.26, 417.37 433.31, 401.57 445.58 C385.76 457.85, 368.43 469.14, 350.1 477.44 C331.76 485.74, 311.19 491.96, 291.53 495.39 C271.88 498.83, 251.74 499.37, 232.16 498.06 C212.58 496.74, 192.98 493.68, 174.05 487.52 C155.11 481.37, 135.75 471.68, 118.55 461.13 C101.35 450.58, 84.69 438.44, 70.84 424.22 C56.99 410, 45.45 392.97, 35.45 375.82 C25.45 358.67, 16.58 340.27, 10.81 321.3 C5.05 302.34, 2.05 281.93, 0.86 262.02 C-0.32 242.12, -0.03 221.4, 3.69 201.89 C7.41 182.38, 14.83 162.94, 23.18 144.96 C31.53 126.98, 41.61 109.48, 53.81 94.01 C66.01 78.54, 80.53 64.24, 96.37 52.13 C112.2 40.03, 130.52 29.34, 148.81 21.35 C167.11 13.37, 183.16 7.3, 206.14 4.23 C229.11 1.17, 269.8 1.77, 286.64 2.96 C303.47 4.15, 307.52 7.33, 307.14 11.37 M183.45 10.21 C200.65 1.14, 223.48 0.62, 243.54 -0.33 C263.59 -1.28, 284.58 0.35, 303.8 4.52 C323.02 8.69, 341.17 15.63, 358.85 24.7 C376.52 33.78, 394.75 45.92, 409.83 58.95 C424.92 71.99, 437.53 86.93, 449.35 102.91 C461.17 118.89, 472.82 136.35, 480.77 154.82 C488.71 173.29, 494.33 193.99, 497.01 213.74 C499.7 233.5, 498.93 253.61, 496.89 273.35 C494.85 293.08, 491.45 313.65, 484.76 332.14 C478.08 350.63, 467.82 367.49, 456.76 384.27 C445.7 401.05, 432.75 419.28, 418.39 432.82 C404.03 446.36, 387.78 456.15, 370.62 465.52 C353.47 474.89, 334.41 483.51, 315.45 489.03 C296.49 494.54, 276.54 497.73, 256.86 498.6 C237.17 499.48, 217.01 498.3, 197.34 494.27 C177.68 490.24, 157.04 483.49, 138.88 474.42 C120.72 465.36, 103.74 452.88, 88.37 439.88 C73 426.88, 58.05 412.44, 46.64 396.41 C35.24 380.38, 27.22 361.97, 19.95 343.69 C12.67 325.4, 5.9 306.54, 2.99 286.71 C0.08 266.89, 0.6 244.42, 2.5 224.74 C4.39 205.07, 7.9 187.47, 14.36 168.65 C20.82 149.82, 30.5 128.5, 41.26 111.79 C52.02 95.09, 64.48 81.63, 78.92 68.42 C93.35 55.21, 110.56 42.22, 127.84 32.55 C145.13 22.88, 173 13.49, 182.64 10.4 C192.29 7.3, 184.73 10.44, 185.72 13.98" stroke="#1e1e1e" stroke-width="2" fill="none"></path></g><g stroke-linecap="round" transform="translate(1183.5714285714287 10) rotate(0 249.28571428571422 249.28571428571422)"><path d="M225.02 0.36 C243.18 -5.41, 264.95 -0.81, 284.85 2.21 C304.74 5.23, 326.01 10.91, 344.39 18.48 C362.77 26.06, 379.25 36.09, 395.13 47.66 C411.01 59.23, 426.59 72.69, 439.68 87.88 C452.77 103.08, 464.85 120.71, 473.69 138.84 C482.53 156.97, 488.65 177.15, 492.71 196.67 C496.77 216.19, 498.57 236.29, 498.03 255.96 C497.49 275.62, 494.62 295.63, 489.45 314.64 C484.29 333.66, 476.65 352.52, 467.04 370.06 C457.43 387.61, 445.42 405.22, 431.8 419.9 C418.18 434.58, 401.89 447.45, 385.33 458.15 C368.76 468.85, 351.2 477.42, 332.41 484.1 C313.61 490.77, 292.53 496.38, 272.57 498.19 C252.61 500, 232.36 497.85, 212.63 494.93 C192.91 492.02, 172.62 488.11, 154.23 480.71 C135.84 473.32, 118.24 462.36, 102.31 450.56 C86.38 438.75, 71.31 425.12, 58.67 409.88 C46.04 394.65, 35.29 376.88, 26.5 359.17 C17.71 341.45, 10.24 322.84, 5.94 303.59 C1.63 284.34, 0.07 263.79, 0.69 243.65 C1.32 223.51, 4.52 202.07, 9.7 182.76 C14.89 163.45, 22.17 145.13, 31.81 127.79 C41.44 110.45, 53.85 93.15, 67.51 78.71 C81.18 64.27, 97.4 51.93, 113.8 41.13 C130.2 30.34, 143.68 20.66, 165.93 13.95 C188.18 7.24, 230.27 2.08, 247.29 0.86 C264.31 -0.37, 268.04 2.73, 268.04 6.62 M292.25 4.02 C311.63 3.47, 331.99 13.34, 350.47 21.56 C368.94 29.77, 387.08 41.02, 403.08 53.31 C419.08 65.6, 434.34 79.59, 446.47 95.27 C458.59 110.95, 467.89 129.47, 475.81 147.41 C483.73 165.36, 490.33 183.67, 493.99 202.92 C497.65 222.18, 499 242.96, 497.78 262.95 C496.56 282.95, 492.29 303.69, 486.65 322.88 C481 342.07, 473.78 361.03, 463.9 378.11 C454.01 395.18, 441.43 411.29, 427.33 425.31 C413.23 439.34, 396.64 452.14, 379.31 462.25 C361.98 472.35, 342.38 479.91, 323.34 485.95 C304.29 491.98, 284.65 496.78, 265.04 498.45 C245.43 500.12, 224.99 499.45, 205.67 495.95 C186.34 492.44, 167.49 485.8, 149.07 477.42 C130.66 469.04, 111.2 457.92, 95.17 445.67 C79.15 433.41, 65.14 419.23, 52.92 403.87 C40.69 388.52, 29.8 371.86, 21.8 353.54 C13.79 335.22, 8.62 313.69, 4.89 293.94 C1.15 274.19, -1.43 254.72, -0.63 235.04 C0.18 215.35, 3.73 194.96, 9.7 175.83 C15.68 156.7, 24.94 137.3, 35.22 120.26 C45.5 103.22, 57.51 87.42, 71.39 73.59 C85.28 59.76, 101.41 47.64, 118.53 37.27 C135.66 26.9, 155.11 17.33, 174.13 11.39 C193.16 5.44, 212.87 2.89, 232.68 1.6 C252.49 0.31, 282.81 2.31, 293 3.64 C303.19 4.96, 294.26 5.3, 293.83 9.55" stroke="#1e1e1e" stroke-width="2" fill="none"></path></g><g transform="translate(174.39880698067805 247.14285714285722) rotate(0 78.45833587646484 22.5)"><text x="78.45833587646484" y="31.536" font-family="Virgil, Segoe UI Emoji" font-size="36px" fill="#1e1e1e" text-anchor="middle" style="white-space: pre;" direction="ltr" dominant-baseline="alphabetic">Person A</text></g><g transform="translate(1354.5523845127652 238.21428571428578) rotate(0 79.73332977294922 22.5)"><text x="79.73332977294922" y="31.536" font-family="Virgil, Segoe UI Emoji" font-size="36px" fill="#1e1e1e" text-anchor="middle" style="white-space: pre;" direction="ltr" dominant-baseline="alphabetic">Person B</text></g><g stroke-linecap="round" transform="translate(700.0000000000005 44.99999999999994) rotate(0 129.28571428571422 83.57142857142858)"><path d="M32 0 C91.69 1.19, 152.51 0.84, 226.57 0 M32 0 C85.4 1.13, 137.41 2.13, 226.57 0 M226.57 0 C246.08 1.85, 257.01 11.14, 258.57 32 M226.57 0 C246.93 1.6, 260.74 11.73, 258.57 32 M258.57 32 C258.01 71.45, 259.1 109.09, 258.57 135.14 M258.57 32 C258.58 70.4, 257.45 108.57, 258.57 135.14 M258.57 135.14 C258.84 158.02, 249.68 166.83, 226.57 167.14 M258.57 135.14 C257.84 157.06, 245.96 165.36, 226.57 167.14 M226.57 167.14 C178.09 169.18, 131.33 168.57, 32 167.14 M226.57 167.14 C184.02 167.48, 141.84 167.75, 32 167.14 M32 167.14 C9.95 166.38, 0.18 157.71, 0 135.14 M32 167.14 C9.62 166.26, -1.23 155.24, 0 135.14 M0 135.14 C-0.72 96.13, 1.7 58.37, 0 32 M0 135.14 C0.14 108.5, 0.51 81.71, 0 32 M0 32 C1.69 9.68, 8.78 0.25, 32 0 M0 32 C0.17 12.38, 10.93 -1.51, 32 0" stroke="#1e1e1e" stroke-width="2" fill="none"></path></g><g transform="translate(777.7666664123544 85.71428571428567) rotate(0 52.233333587646484 17.5)"><text x="52.233333587646484" y="24.528" font-family="Virgil, Segoe UI Emoji" font-size="28px" fill="#1e1e1e" text-anchor="middle" style="white-space: pre;" direction="ltr" dominant-baseline="alphabetic">ID: 123</text></g><g transform="translate(752.4392841884069 126.42857142857139) rotate(0 73.2750015258789 17.5)"><text x="73.2750015258789" y="24.528" font-family="Virgil, Segoe UI Emoji" font-size="28px" fill="#1e1e1e" text-anchor="middle" style="white-space: pre;" direction="ltr" dominant-baseline="alphabetic">Type: Hello</text></g><g stroke-linecap="round"><g transform="translate(474.28571428571433 126.42857142857139) rotate(0 103.57142857142861 -1.428571428571388)"><path d="M-0.63 1.11 C33.82 0.43, 172.67 -2.12, 207.48 -2.95 M1.25 0.64 C35.49 0.68, 172.24 -0.84, 206.71 -1.46" stroke="#1e1e1e" stroke-width="2" fill="none"></path></g><g transform="translate(474.28571428571433 126.42857142857139) rotate(0 103.57142857142861 -1.428571428571388)"><path d="M183.34 7.41 C193.71 4.83, 200.33 2.87, 206.71 -1.46 M183.34 7.41 C188.54 6.06, 193.99 3.69, 206.71 -1.46" stroke="#1e1e1e" stroke-width="2" fill="none"></path></g><g transform="translate(474.28571428571433 126.42857142857139) rotate(0 103.57142857142861 -1.428571428571388)"><path d="M183.1 -9.69 C193.72 -5.97, 200.42 -1.63, 206.71 -1.46 M183.1 -9.69 C188.38 -7.34, 193.88 -6, 206.71 -1.46" stroke="#1e1e1e" stroke-width="2" fill="none"></path></g></g><mask></mask><g stroke-linecap="round"><g transform="translate(978.5714285714284 123.57142857142861) rotate(0 107.14285714285711 10)"><path d="M1.09 0.82 C36.7 4.04, 177.9 16.26, 213.52 19.54 M0.21 0.21 C36.2 3.56, 180.14 17.8, 215.83 20.84" stroke="#1e1e1e" stroke-width="2" fill="none"></path></g><g transform="translate(978.5714285714284 123.57142857142861) rotate(0 107.14285714285711 10)"><path d="M191.65 27.18 C200.09 23.83, 205.03 24.19, 215.83 20.84 M191.65 27.18 C199.4 24.66, 209.04 23.51, 215.83 20.84" stroke="#1e1e1e" stroke-width="2" fill="none"></path></g><g transform="translate(978.5714285714284 123.57142857142861) rotate(0 107.14285714285711 10)"><path d="M193.23 10.15 C201.25 11.8, 205.73 17.14, 215.83 20.84 M193.23 10.15 C200.31 13.51, 209.4 18.23, 215.83 20.84" stroke="#1e1e1e" stroke-width="2" fill="none"></path></g></g><mask></mask><g stroke-linecap="round" transform="translate(707.1428571428573 304.9999999999999) rotate(0 127.85714285714266 82.14285714285717)"><path d="M32 0 C106.38 -2.07, 182.63 0.69, 223.71 0 M32 0 C90.49 1.26, 148.32 1.16, 223.71 0 M223.71 0 C245.15 -0.61, 257.6 9.64, 255.71 32 M223.71 0 C247.29 -0.92, 254.71 10.26, 255.71 32 M255.71 32 C257.45 67.1, 257.5 103.27, 255.71 132.29 M255.71 32 C254.6 60.5, 255.63 91.33, 255.71 132.29 M255.71 132.29 C254.51 154.48, 243.85 165.39, 223.71 164.29 M255.71 132.29 C257.68 153.85, 247.21 165.51, 223.71 164.29 M223.71 164.29 C181.31 164.69, 143.82 162.5, 32 164.29 M223.71 164.29 C158.66 164.32, 94.44 164.21, 32 164.29 M32 164.29 C12.09 166.13, 0.52 152.21, 0 132.29 M32 164.29 C12.29 164.79, 2.18 154.42, 0 132.29 M0 132.29 C1.57 112.74, -1.82 92.06, 0 32 M0 132.29 C-0.91 93.18, -0.02 52.8, 0 32 M0 32 C-0.74 10.31, 12.34 -0.48, 32 0 M0 32 C0.39 8.88, 8.86 1.39, 32 0" stroke="#1e1e1e" stroke-width="2" fill="none"></path></g><g transform="translate(725.1476200648717 337.8571428571429) rotate(0 110.56666564941406 52.5)"><text x="110.56666564941406" y="24.528" font-family="Virgil, Segoe UI Emoji" font-size="28px" fill="#1e1e1e" text-anchor="middle" style="white-space: pre;" direction="ltr" dominant-baseline="alphabetic">ID: 567</text><text x="110.56666564941406" y="59.528" font-family="Virgil, Segoe UI Emoji" font-size="28px" fill="#1e1e1e" text-anchor="middle" style="white-space: pre;" direction="ltr" dominant-baseline="alphabetic">Type: Hello back</text><text x="110.56666564941406" y="94.52799999999999" font-family="Virgil, Segoe UI Emoji" font-size="28px" fill="#1e1e1e" text-anchor="middle" style="white-space: pre;" direction="ltr" dominant-baseline="alphabetic">In reply to: 123</text></g><g stroke-linecap="round"><g transform="translate(1191.4285714285716 370.71428571428567) rotate(0 -105 8.571428571428555)"><path d="M-0.13 -0.06 C-35.08 2.64, -175.24 14.4, -210.02 17.12 M-1.66 -1.14 C-36.74 1.68, -176.43 15.6, -210.98 18.65" stroke="#1e1e1e" stroke-width="2" fill="none"></path></g><g transform="translate(1191.4285714285716 370.71428571428567) rotate(0 -105 8.571428571428555)"><path d="M-188.4 7.93 C-194.59 10.8, -200.7 15.71, -210.98 18.65 M-188.4 7.93 C-193.32 10.51, -198.5 13.25, -210.98 18.65" stroke="#1e1e1e" stroke-width="2" fill="none"></path></g><g transform="translate(1191.4285714285716 370.71428571428567) rotate(0 -105 8.571428571428555)"><path d="M-186.79 24.95 C-193.56 23.16, -200.11 23.42, -210.98 18.65 M-186.79 24.95 C-192.18 23.63, -197.73 22.47, -210.98 18.65" stroke="#1e1e1e" stroke-width="2" fill="none"></path></g></g><mask></mask><g stroke-linecap="round"><g transform="translate(688.5714285714284 392.1428571428571) rotate(0 -94.28571428571416 -9.285714285714334)"><path d="M1.1 -0.06 C-30.23 -2.97, -156.04 -14.42, -187.67 -17.58 M0.22 -1.13 C-31.21 -4.36, -156.52 -16.38, -188.14 -19.18" stroke="#1e1e1e" stroke-width="2" fill="none"></path></g><g transform="translate(688.5714285714284 392.1428571428571) rotate(0 -94.28571428571416 -9.285714285714334)"><path d="M-163.96 -25.52 C-171.9 -21.73, -178 -21.36, -188.14 -19.18 M-163.96 -25.52 C-169.72 -24.45, -176.23 -21.29, -188.14 -19.18" stroke="#1e1e1e" stroke-width="2" fill="none"></path></g><g transform="translate(688.5714285714284 392.1428571428571) rotate(0 -94.28571428571416 -9.285714285714334)"><path d="M-165.54 -8.5 C-172.95 -10.25, -178.54 -15.39, -188.14 -19.18 M-165.54 -8.5 C-170.78 -11.91, -176.88 -13.24, -188.14 -19.18" stroke="#1e1e1e" stroke-width="2" fill="none"></path></g></g><mask></mask></svg>