<?xml version="1.0" standalone="no"?>
<!DOCTYPE svg PUBLIC "-//W3C//DTD SVG 20010904//EN"
 "http://www.w3.org/TR/2001/REC-SVG-20010904/DTD/svg10.dtd">
<svg version="1.0" xmlns="http://www.w3.org/2000/svg"
 width="700.000000pt" height="700.000000pt" viewBox="0 0 700.000000 700.000000"
 preserveAspectRatio="xMidYMid meet">
<metadata>
Created by potrace 1.14, written by Peter Selinger 2001-2017
</metadata>
<g transform="translate(0.000000,700.000000) scale(0.100000,-0.100000)"
fill="#000000" stroke="none">
<path d="M3279 6996 c-2 -2 -43 -6 -90 -10 -47 -4 -95 -8 -105 -10 -10 -2 -41
-7 -69 -10 -44 -6 -153 -24 -180 -30 -5 -2 -28 -6 -50 -10 -385 -74 -866 -275
-1215 -509 -74 -50 -265 -191 -286 -211 -6 -6 -35 -31 -64 -56 -382 -321 -732
-800 -936 -1282 -87 -205 -182 -514 -209 -681 -3 -17 -10 -54 -15 -82 -11 -62
-27 -178 -37 -270 -16 -149 -8 -671 12 -770 2 -11 7 -40 10 -65 7 -64 33 -209
39 -218 2 -4 7 -27 11 -51 3 -24 10 -53 14 -65 5 -11 9 -23 9 -26 1 -33 80
-281 133 -417 140 -356 346 -699 597 -991 86 -101 276 -293 355 -359 34 -29
74 -63 89 -75 226 -194 576 -402 895 -532 280 -114 641 -208 888 -231 17 -2
64 -7 105 -12 94 -10 525 -11 645 0 71 6 309 40 360 52 6 1 28 5 50 10 86 16
269 67 392 109 497 168 952 448 1323 816 159 158 230 238 355 405 128 170 208
300 311 500 139 271 259 607 309 865 17 90 36 201 46 270 6 47 13 99 15 115 8
62 11 534 3 617 -27 288 -63 480 -140 736 -74 248 -194 525 -315 729 -33 54
-61 103 -64 108 -11 22 -135 203 -179 260 -218 284 -467 526 -751 730 -105 75
-274 185 -284 185 -2 0 -37 19 -78 43 -168 98 -455 217 -690 286 -137 40 -390
95 -483 106 -123 14 -154 18 -175 22 -28 5 -546 14 -551 9z m1634 -679 c120
-55 349 -194 452 -274 17 -13 35 -27 40 -31 370 -275 696 -667 910 -1091 126
-252 230 -555 280 -821 3 -14 7 -36 10 -50 3 -14 8 -50 11 -80 3 -30 7 -57 9
-60 2 -3 6 -46 10 -97 7 -84 6 -92 -14 -112 -21 -21 -54 -27 -85 -15 -8 3 -41
38 -73 77 -362 450 -878 702 -1438 701 -343 -1 -637 -81 -940 -257 -309 -180
-356 -207 -450 -251 -332 -159 -582 -196 -805 -119 -41 14 -92 37 -112 49 -21
13 -40 24 -43 24 -8 0 -58 36 -165 119 -140 110 -281 254 -388 396 -133 179
-237 441 -268 675 -11 86 -5 286 11 385 72 454 226 663 559 759 192 56 374 53
671 -9 166 -35 465 -88 555 -99 25 -3 70 -8 100 -11 30 -4 69 -8 85 -11 68 -9
385 -12 445 -3 198 28 262 57 372 171 l77 80 54 -5 c31 -3 86 -20 130 -40z
m-3122 -217 c10 -6 25 -23 33 -38 12 -23 12 -33 1 -62 -43 -115 -95 -269 -98
-290 -3 -14 -10 -43 -15 -65 -27 -101 -37 -205 -37 -390 0 -232 20 -369 80
-559 46 -146 148 -358 211 -443 13 -17 24 -35 24 -38 0 -18 163 -205 253 -292
132 -125 237 -199 473 -332 310 -175 467 -285 597 -418 128 -131 200 -250 236
-393 16 -61 19 -101 16 -212 -2 -76 -6 -141 -8 -145 -3 -5 -7 -30 -11 -58 -30
-242 -132 -526 -262 -728 -50 -77 -46 -72 -110 -147 -199 -235 -486 -400 -830
-479 -123 -29 -249 -31 -344 -6 -132 34 -315 155 -394 261 -17 21 -33 41 -37
44 -16 12 -108 172 -138 240 -18 41 -66 172 -106 290 -65 194 -140 402 -164
455 -5 11 -16 36 -24 55 -132 315 -258 524 -387 643 -71 66 -142 102 -234 117
-108 19 -136 57 -151 202 -7 69 -7 320 0 403 10 122 15 181 20 205 2 14 6 43
9 65 4 22 8 51 11 65 2 14 7 36 9 50 4 23 28 128 56 240 35 144 141 415 233
594 224 442 576 850 971 1127 72 51 85 56 117 39z m3611 -1874 c160 -28 329
-89 452 -163 166 -99 366 -275 463 -407 188 -254 168 -586 -54 -930 -24 -38
-50 -74 -56 -81 -7 -7 -26 -30 -43 -51 -18 -22 -42 -50 -55 -64 -13 -14 -69
-77 -125 -140 -158 -181 -252 -299 -409 -515 -43 -58 -151 -240 -179 -300 -59
-126 -79 -196 -82 -290 -2 -74 2 -102 22 -160 33 -96 31 -123 -10 -171 -75
-88 -337 -239 -641 -369 -156 -67 -459 -154 -625 -180 -14 -3 -34 -6 -45 -9
-12 -2 -48 -7 -80 -11 -33 -4 -68 -9 -77 -11 -10 -1 -66 -6 -125 -10 -208 -15
-462 -6 -643 20 -19 3 -52 8 -74 11 -231 32 -581 137 -802 240 -98 46 -111 62
-92 116 13 39 27 45 144 64 437 70 798 265 1094 591 225 248 404 630 444 949
4 28 9 68 12 90 3 22 7 198 9 390 2 193 6 364 8 380 3 17 8 55 12 85 21 169
84 359 154 467 98 150 197 225 436 328 84 36 270 95 340 109 17 3 52 10 79 16
27 6 79 13 115 16 36 4 67 8 69 9 11 9 285 -5 364 -19z"/>
</g>
</svg>
